<svg height="56" viewBox="0 0 56 56" width="56" xmlns="http://www.w3.org/2000/svg"><path d="m35.0972068 13.8555c4.800432 0 7.259889 2.340975 7.3563471 6.9787831l.0029529.2868169v27c0 4.7275146-2.3369955 7.1629999-6.3948565 7.2624266l-.2613435.0031734h-27.51570003c-4.777402 0-7.2589678-2.3184056-7.35631947-6.9774289l-.00298053-.2881711v-27c0-4.731538 2.38601776-7.1671438 7.06967535-7.2626754l.28962465-.0029246zm-.0469 3.7734h-26.69530003c-2.26819355 0-3.57054943 1.1852653-3.65221215 3.4708744l-.00408785.2322256v26.6016c0 2.358871 1.22918834 3.5983143 3.43270954 3.6758237l.22359046.0038763h27.39840003c1.5614345 0 2.8388204-1.1580081 2.9250594-3.4318106l.0046406-.2478894v-26.6016c0-2.358871-1.2291884-3.6202289-3.4114112-3.6991523zm-6.9827 6.2370063c1.0710476-.2627619 1.3722993.0519819 1.3985612.7790656l.0019388.1121344v4.1591c0 1.113581-.2605585 1.3934238-1.0645973 1.6408933l-.2723027.0780067-4.9655 1.1883c-.45556.0990267-.6337583.2904783-.6554933.9539617l-.0023067.1495383v7.2785c0 3.0769-2.0584 5.2626-5.0928 5.2626-2.1433 0-3.5014-1.3157-3.5014-3.1194 0-2.0053285 1.5193699-3.142459 3.3593045-3.6776929l.2056955-.0570071 1.9523-.5093.2899054-.0862021c.6560055-.2104132.8130397-.3993446.8471621-.9427269l.007985-.2371481.0007475-9.7047229c0-1.1327619.1911417-1.4143496.9975855-1.6463501l.2756145-.0725499zm5.0139-17.0417063c2.2629793 0 3.2805079 1.09247277 3.6643689 3.08750187l.0387311.21719813h-30.86710003c.33937931-2.05925517 1.29057693-3.22273674 3.46537582-3.30052827l.23772418-.00417173zm-3.7031-6.2109c2.0791928 0 3.1996205.95885816 3.4030663 2.81363049l.0188337.20976951h-22.7344c.1355785-1.92105 1.2083498-2.94851709 3.2181345-3.01945728l.2271655-.00394272z" transform="translate(6)" fill= "rgb(250 88 106 / 60%)"/></svg>