<svg width="24" height="24" stroke-width="1.5" viewBox="0 0 24 24" fill="none" xmlns="http://www.w3.org/2000/svg">
  <!-- Top row -->
  <path d="M3 7.4V1.6C3 1.26863 3.26863 1 3.6 1H9.4C9.73137 1 10 1.26863 10 1.6V7.4C10 7.73137 9.73137 8 9.4 8H3.6C3.26863 8 3 7.73137 3 7.4Z" stroke="rgb(250 88 106 / 60%)" stroke-width="1.5"/>
  <path d="M14 7.4V1.6C14 1.26863 14.2686 1 14.6 1H20.4C20.7314 1 21 1.26863 21 1.6V7.4C21 7.73137 20.7314 8 20.4 8H14.6C14.2686 8 14 7.73137 14 7.4Z" stroke="rgb(250 88 106 / 60%)" stroke-width="1.5"/>
  <path d="M8.5 7.4V1.6C8.5 1.26863 8.76863 1 9.1 1H14.9C15.2314 1 15.5 1.26863 15.5 1.6V7.4C15.5 7.73137 15.2314 8 14.9 8H9.1C8.76863 8 8.5 7.73137 8.5 7.4Z" stroke="rgb(250 88 106 / 60%)" stroke-width="1.5"/>

  <!-- Middle row -->
  <path d="M3 13.4V7.6C3 7.26863 3.26863 7 3.6 7H9.4C9.73137 7 10 7.26863 10 7.6V13.4C10 13.7314 9.73137 14 9.4 14H3.6C3.26863 14 3 13.7314 3 13.4Z" stroke="rgb(250 88 106 / 60%)" stroke-width="1.5"/>
  <path d="M14 13.4V7.6C14 7.26863 14.2686 7 14.6 7H20.4C20.7314 7 21 7.26863 21 7.6V13.4C21 13.7314 20.7314 14 20.4 14H14.6C14.2686 14 14 13.7314 14 13.4Z" stroke="rgb(250 88 106 / 60%)" stroke-width="1.5"/>
  <path d="M8.5 13.4V7.6C8.5 7.26863 8.76863 7 9.1 7H14.9C15.2314 7 15.5 7.26863 15.5 7.6V13.4C15.5 13.7314 15.2314 14 14.9 14H9.1C8.76863 14 8.5 13.7314 8.5 13.4Z" stroke="rgb(250 88 106 / 60%)" stroke-width="1.5"/>

  <!-- Bottom row -->
  <path d="M3 19.4V13.6C3 13.2686 3.26863 13 3.6 13H9.4C9.73137 13 10 13.2686 10 13.6V19.4C10 19.7314 9.73137 20 9.4 20H3.6C3.26863 20 3 19.7314 3 19.4Z" stroke="rgb(250 88 106 / 60%)" stroke-width="1.5"/>
  <path d="M14 19.4V13.6C14 13.2686 14.2686 13 14.6 13H20.4C20.7314 13 21 13.2686 21 13.6V19.4C21 19.7314 20.7314 20 20.4 20H14.6C14.2686 20 14 19.7314 14 19.4Z" stroke="rgb(250 88 106 / 60%)" stroke-width="1.5"/>
  <path d="M8.5 19.4V13.6C8.5 13.2686 8.76863 13 9.1 13H14.9C15.2314 13 15.5 13.2686 15.5 13.6V19.4C15.5 19.7314 15.2314 20 14.9 20H9.1C8.76863 20 8.5 19.7314 8.5 19.4Z" stroke="rgb(250 88 106 / 60%)" stroke-width="1.5"/>
</svg>
