<svg width="42" height="50" viewBox="0 0 50 50" fill="none" xmlns="http://www.w3.org/2000/svg">
  <!-- Background Circle -->
  <circle cx="25" cy="25" r="24" fill="#282e3d" />

  <!-- Cross -->
  <path
    fill-rule="evenodd"
    clip-rule="evenodd"
    d="M32.8536 18.8536C33.0488 18.6583 33.0488 18.3417 32.8536 18.1464C32.6583 17.9512 32.3417 17.9512 32.1464 18.1464L25 25.2929L17.8536 18.1464C17.6583 17.9512 17.3417 17.9512 17.1464 18.1464C16.9512 18.3417 16.9512 18.6583 17.1464 18.8536L24.2929 26L17.1464 33.1464C16.9512 33.3417 16.9512 33.6583 17.1464 33.8536C17.3417 34.0488 17.6583 34.0488 17.8536 33.8536L25 26.7071L32.1464 33.8536C32.3417 34.0488 32.6583 34.0488 32.8536 33.8536C33.0488 33.6583 33.0488 33.3417 32.8536 33.1464L25.7071 26L32.8536 18.8536Z"
    stroke="#ffffff"
    stroke-width="1.5"
    stroke-linejoin="round"
    fill="#ffffff"
  />
</svg>
